HIERARCHY
ROOT Hips
{
	OFFSET 0.000000 8.830580 0.000000
	CHANNELS 6 Xposition Yposition Zposition Zrotation Yrotation Xrotation 
	JOINT Spine
	{
		OFFSET 0.000000 0.010000 0.000000
		CHANNELS 3 Zrotation Yrotation Xrotation
		JOINT Spine1
		{
			OFFSET 0.000000 2.459130 0.000000
			CHANNELS 3 Zrotation Yrotation Xrotation
			JOINT Neck
			{
				OFFSET 0.000000 2.484630 0.000000
				CHANNELS 3 Zrotation Yrotation Xrotation
				JOINT Head_virtual
				{
					OFFSET 0.000000 0.000000 0.000000
					CHANNELS 3 Zrotation Yrotation Xrotation
					JOINT Head
					{
						OFFSET 0.000000 0.927525 0.000000
						CHANNELS 3 Zrotation Yrotation Xrotation
						End Site
						{
							OFFSET 0.000000 0.000000 0.000000
						}
					}
				}
				JOINT LeftUpArm_virtual
				{
					OFFSET 0.000000 0.000000 0.000000
					CHANNELS 3 Zrotation Yrotation Xrotation
					JOINT LeftUpArm
					{
						OFFSET 1.248820 0.000000 0.000000
						CHANNELS 3 Zrotation Yrotation Xrotation
						JOINT LeftForeArm
						{
							OFFSET 2.597580 0.000000 0.000000
							CHANNELS 3 Zrotation Yrotation Xrotation
							JOINT LeftHand
							{
								OFFSET 2.455420 0.000000 0.000000
								CHANNELS 3 Zrotation Yrotation Xrotation
								End Site
								{
									OFFSET 0.000000 0.000000 0.000000
								}
							}
						}
					}
				}
				JOINT RightUpArm_virtual
				{
					OFFSET -0.000000 -0.000000 -0.000000
					CHANNELS 3 Zrotation Yrotation Xrotation
					JOINT RightUpArm
					{
						OFFSET -1.248820 -0.000000 -0.000000
						CHANNELS 3 Zrotation Yrotation Xrotation
						JOINT RightForeArm
						{
							OFFSET -2.597580 -0.000000 -0.000000
							CHANNELS 3 Zrotation Yrotation Xrotation
							JOINT RightHand
							{
								OFFSET -2.455420 -0.000000 -0.000000
								CHANNELS 3 Zrotation Yrotation Xrotation
								End Site
								{
									OFFSET 0.000000 0.000000 0.000000
								}
							}
						}
					}
				}
			}
		}
	}
	JOINT LeftUpLeg
	{
		OFFSET 1.271939 0.000000 0.000000
		CHANNELS 3 Zrotation Yrotation Xrotation
		JOINT LeftLowLeg
		{
			OFFSET 0.000000 -4.342910 0.000000
			CHANNELS 3 Zrotation Yrotation Xrotation
			JOINT LeftFoot
			{
				OFFSET 0.000000 -4.487670 0.000000
				CHANNELS 3 Zrotation Yrotation Xrotation
				JOINT LeftToeBase
				{
					OFFSET 0.000000 0.000000 1.515070
					CHANNELS 3 Zrotation Yrotation Xrotation
					End Site
					{
						OFFSET 0.000000 0.000000 0.000000
					}
				}
			}
		}
	}
	JOINT RightUpLeg
	{
		OFFSET -1.271939 0.000000 0.000000
		CHANNELS 3 Zrotation Yrotation Xrotation
		JOINT RightLowLeg
		{
			OFFSET 0.000000 -4.342910 0.000000
			CHANNELS 3 Zrotation Yrotation Xrotation
			JOINT RightFoot
			{
				OFFSET 0.000000 -4.487670 0.000000
				CHANNELS 3 Zrotation Yrotation Xrotation
				JOINT RightToeBase
				{
					OFFSET 0.000000 0.000000 1.515070
					CHANNELS 3 Zrotation Yrotation Xrotation
					End Site
					{
						OFFSET 0.000000 0.000000 0.000000
					}
				}
			}
		}
	}
}
MOTION
Frames: 11
Frame Time: 0.041667
-17.287045 6.092078 36.843958 176.107336 4.493816 160.324660 -0.869063 8.723629 -2.863949 -5.291740 -7.840930 32.215820 0.000000 0.000000 0.000000 9.255848 0.724518 23.957793 -11.122583 -4.405662 -85.028029 -24.150101 0.152266 8.580994 -43.123798 -19.150101 12.406900 180.000000 -51.082001 -180.000000 25.128099 6.965870 47.227299 24.691601 -2.355010 5.084991 45.749001 11.348200 28.591003 180.000000 55.064003 -180.000000 -28.980600 -26.601400 -32.594200 -28.414020 -7.887379 -66.492018 0.000000 0.000000 88.939003 -3.571445 2.747692 32.015577 0.000000 0.000000 -47.732498 8.215260 11.988102 -50.140793 0.000000 0.000000 73.595398 18.531694 -6.819870 9.314637 0.000000 0.000000 -22.734220 
-17.287218 6.091808 36.843581 176.113349 4.509894 160.359924 -0.846443 8.738661 -2.798016 -5.371058 -7.873315 32.109812 0.000000 0.000000 0.000000 9.276752 0.692526 23.700111 -11.046667 -4.379512 -85.063476 -24.119400 0.190613 8.477997 -43.149700 -19.087299 12.431600 -180.000000 -51.119995 180.000000 25.201000 7.017640 46.937099 24.694700 -2.362960 5.070007 45.679501 11.385900 28.743988 180.000000 55.070999 180.000000 -29.080700 -26.273701 -32.687099 -28.410700 -7.883711 -66.521977 0.000000 0.000000 88.960098 -3.574693 2.776985 31.996628 0.000000 0.000000 -47.668598 8.217245 12.007725 -50.176979 0.000000 0.000000 73.598000 18.518915 -6.822969 9.321820 0.000000 0.000000 -22.754820 
-17.287231 6.091724 36.842988 176.119242 4.514835 160.399769 -0.828521 8.748753 -2.683657 -5.472006 -7.927686 31.925144 0.000000 0.000000 0.000000 9.372929 0.618651 23.571563 -11.039033 -4.327003 -85.202875 -24.129801 0.227954 8.429993 -43.101700 -18.972099 12.407000 180.000000 -51.138000 -180.000000 25.226200 6.916790 46.646702 24.745899 -2.360950 5.125000 45.636501 11.339000 28.660004 180.000000 55.125000 180.000000 -28.496700 -25.708099 -33.072899 -28.405941 -7.891160 -66.552733 0.000000 0.000000 88.984596 -3.614476 2.783154 31.994711 0.000000 0.000000 -47.620098 8.213522 12.025891 -50.217028 0.000000 0.000000 73.601601 18.513970 -6.829316 9.324362 0.000000 0.000000 -22.739450 
-17.286809 6.092352 36.842457 176.126521 4.535523 160.435683 -0.821640 8.752325 -2.592165 -5.564176 -7.974749 31.808023 0.000000 0.000000 0.000000 9.441265 0.606300 23.353712 -10.995472 -4.243546 -85.285685 -24.064600 0.272808 8.417999 -43.147499 -18.871401 12.362400 -180.000000 -51.154007 180.000000 25.150499 6.797350 46.715599 24.762300 -2.350110 5.126007 45.667301 11.238500 28.662994 -180.000000 55.225998 -180.000000 -28.070101 -25.268900 -33.123600 -28.399488 -7.865574 -66.574317 0.000000 0.000000 89.021599 -3.613493 2.783633 31.960972 0.000000 0.000000 -47.534801 8.218411 12.065244 -50.239555 0.000000 0.000000 73.585701 18.542934 -6.839068 9.328020 0.000000 0.000000 -22.729070 
-17.286903 6.092903 36.842161 176.132542 4.550515 160.461055 -0.826689 8.747416 -2.481613 -5.617975 -8.010676 31.712629 0.000000 0.000000 0.000000 9.542976 0.545827 23.064559 -10.950530 -4.140097 -85.365373 -24.068199 0.335216 8.415985 -43.111599 -18.851700 12.355300 -180.000000 -51.160004 -180.000000 25.150600 6.833140 46.794899 24.789499 -2.382490 5.088013 45.659698 11.206600 28.709015 -180.000000 55.327003 -180.000000 -27.742701 -25.289700 -33.168201 -28.394968 -7.856628 -66.580568 0.000000 0.000000 89.047600 -3.637979 2.789292 31.945718 0.000000 0.000000 -47.518002 8.219619 12.089197 -50.258268 0.000000 0.000000 73.576302 18.539216 -6.845314 9.348441 0.000000 0.000000 -22.740150 
-17.286931 6.093306 36.841824 176.143314 4.562879 160.489085 -0.844531 8.740969 -2.362505 -5.643655 -8.042926 31.568658 0.000000 0.000000 0.000000 9.697708 0.436125 22.829013 -10.866573 -4.023231 -85.467811 -24.060900 0.321549 8.498993 -43.088200 -18.798300 12.307400 180.000000 -51.225006 180.000000 25.183701 6.818730 46.841301 24.790600 -2.334510 5.148987 45.596401 11.237000 28.658997 -180.000000 55.445000 180.000000 -27.605900 -25.376900 -33.456100 -28.389643 -7.852944 -66.595167 0.000000 0.000000 89.082199 -3.608188 2.784240 31.951575 0.000000 0.000000 -47.530601 8.225494 12.108626 -50.277623 0.000000 0.000000 73.567398 18.526797 -6.853956 9.354213 0.000000 0.000000 -22.714070 
-17.286972 6.093030 36.841370 176.153089 4.579357 160.524417 -0.844052 8.749224 -2.196977 -5.718836 -8.087175 31.387090 0.000000 0.000000 0.000000 9.987856 0.135459 22.413413 -10.756188 -3.844712 -85.558091 -24.047001 0.333209 8.602997 -43.049000 -18.756599 12.215700 180.000000 -51.360001 -180.000000 25.238600 6.732120 46.951401 24.862499 -2.318590 5.287994 45.570400 11.244100 28.346985 180.000000 55.510002 180.000000 -26.825300 -25.520100 -33.416599 -28.400357 -7.846719 -66.627588 0.000000 0.000000 89.135498 -3.675412 2.829492 31.897564 0.000000 0.000000 -47.386002 8.223619 12.141337 -50.319318 0.000000 0.000000 73.573799 18.550243 -6.850167 9.387472 0.000000 0.000000 -22.721820 
-17.287136 6.092800 36.841058 176.172920 4.588971 160.555301 -0.870895 8.727850 -2.082657 -5.697078 -8.107055 31.297066 0.000000 0.000000 0.000000 10.155962 -0.006051 22.030649 -10.642345 -3.715355 -85.655897 -24.075899 0.354084 8.649994 -43.022598 -18.715599 12.150700 -180.000000 -51.514008 -180.000000 25.306999 6.515000 46.841999 24.877501 -2.355980 5.300995 45.533199 11.236800 28.161011 180.000000 55.546997 180.000000 -26.092800 -25.449100 -33.121498 -28.404783 -7.852338 -66.665376 0.000000 0.000000 89.189003 -3.507176 2.780047 31.965270 0.000000 0.000000 -47.528801 8.237849 12.143876 -50.354275 0.000000 0.000000 73.581497 18.567987 -6.843183 9.405467 0.000000 0.000000 -22.711350 
-17.287564 6.092368 36.840920 176.191550 4.610351 160.585287 -0.890445 8.732190 -1.945783 -5.671365 -8.111496 31.146801 0.000000 0.000000 0.000000 10.405710 -0.247024 21.689820 -10.532870 -3.560878 -85.733922 -24.091700 0.336274 8.635986 -43.056099 -18.612101 12.126800 180.000000 -51.662994 -180.000000 25.398500 6.423340 46.752800 24.914900 -2.421020 5.315002 45.587101 11.109100 27.713013 -180.000000 55.541000 -180.000000 -24.590700 -25.806101 -33.448898 -28.413048 -7.850518 -66.719653 0.000000 0.000000 89.242104 -3.568174 2.761875 32.014400 0.000000 0.000000 -47.616001 8.242365 12.165716 -50.396162 0.000000 0.000000 73.591400 18.560613 -6.820903 9.450041 0.000000 0.000000 -22.701470 
-17.288076 6.091866 36.840816 176.226461 4.622370 160.641366 -0.872110 8.722791 -1.850066 -5.715440 -8.154809 31.013463 0.000000 0.000000 0.000000 10.631572 -0.461321 21.393725 -10.396983 -3.423937 -85.797106 -24.118500 0.351288 8.717010 -42.984901 -18.578699 12.022600 180.000000 -51.783005 -180.000000 25.413799 6.368310 46.726700 24.895901 -2.397830 5.300995 45.638401 11.050400 27.446014 -180.000000 55.650002 -180.000000 -23.810699 -25.753201 -32.995201 -28.422915 -7.860419 -66.787555 0.000000 0.000000 89.296700 -3.670437 2.725440 32.076108 0.000000 0.000000 -47.668400 8.257991 12.163007 -50.458480 0.000000 0.000000 73.594803 18.595927 -6.793216 9.480163 0.000000 0.000000 -22.674900 
-17.288973 6.091151 36.840915 176.274365 4.639608 160.701947 -0.832027 8.713694 -1.726312 -5.760621 -8.206014 30.833942 0.000000 0.000000 0.000000 10.806254 -0.604757 21.136370 -10.242992 -3.306767 -85.855545 -24.087400 0.382779 8.681000 -43.018398 -18.462099 12.085900 -180.000000 -51.895004 180.000000 25.505899 6.283690 46.609798 24.927099 -2.441440 5.274994 45.640499 11.026800 27.351990 180.000000 55.720001 180.000000 -23.184500 -25.901100 -33.095001 -28.432654 -7.869360 -66.867490 0.000000 0.000000 89.344803 -3.718393 2.678261 32.069706 0.000000 0.000000 -47.728100 8.286867 12.154780 -50.522104 0.000000 0.000000 73.595100 18.602975 -6.764777 9.519534 0.000000 0.000000 -22.707170 
